<?xml version="1.0" encoding="UTF-8" standalone="no"?>
<svg
   viewBox="0 0 793.7007874015749 1122.5196850393702"
   width="793.7007874015749"
   height="1122.5196850393702"
   version="1.1"
   id="svg358"
   sodipodi:docname="logo mt02.svg"
   inkscape:version="1.3.2 (091e20e, 2023-11-25, custom)"
   xmlns:inkscape="http://www.inkscape.org/namespaces/inkscape"
   xmlns:sodipodi="http://sodipodi.sourceforge.net/DTD/sodipodi-0.dtd"
   xmlns="http://www.w3.org/2000/svg"
   xmlns:svg="http://www.w3.org/2000/svg">
  <sodipodi:namedview
     id="namedview358"
     pagecolor="#ffffff"
     bordercolor="#000000"
     borderopacity="0.25"
     inkscape:showpageshadow="2"
     inkscape:pageopacity="0.0"
     inkscape:pagecheckerboard="0"
     inkscape:deskcolor="#d1d1d1"
     showgrid="false"
     inkscape:zoom="0.69219278"
     inkscape:cx="176.97382"
     inkscape:cy="435.5723"
     inkscape:window-width="1920"
     inkscape:window-height="991"
     inkscape:window-x="-9"
     inkscape:window-y="-9"
     inkscape:window-maximized="1"
     inkscape:current-layer="g358" />
  <desc
     id="desc1">logo mt02.dxf - scale = 1.000000, origin = (0.000000, 0.000000), method = manual</desc>
  <defs
     id="defs4">
    <marker
       id="DistanceX"
       orient="auto"
       refX="0.0"
       refY="0.0"
       style="overflow:visible">
      <path
         d="M 3,-3 L -3,3 M 0,-5 L  0,5"
         style="stroke:#000000; stroke-width:0.5"
         id="path1" />
    </marker>
    <pattern
       id="Hatch"
       patternUnits="userSpaceOnUse"
       width="8"
       height="8"
       x="0"
       y="0">
      <path
         d="M8 4 l-4,4"
         stroke="#000000"
         stroke-width="0.25"
         linecap="square"
         id="path2" />
      <path
         d="M6 2 l-4,4"
         stroke="#000000"
         stroke-width="0.25"
         linecap="square"
         id="path3" />
      <path
         d="M4 0 l-4,4"
         stroke="#000000"
         stroke-width="0.25"
         linecap="square"
         id="path4" />
    </pattern>
  </defs>
  <g
     inkscape:groupmode="layer"
     inkscape:label="0"
     id="g4" />
  <g
     inkscape:groupmode="layer"
     inkscape:label="contorno"
     id="g358">
    <path
       style="fill:none;stroke:#000000"
       d="M 406.317 645.773 L 402.497 643.434"
       id="path5" />
    <path
       style="fill:none;stroke:#000000"
       d="M 402.497 643.434 L 396.544 638.996"
       id="path6" />
    <path
       style="fill:none;stroke:#000000"
       d="M 396.544 638.996 L 393.309 635.077"
       id="path7" />
    <path
       style="fill:none;stroke:#000000"
       d="M 393.309 635.077 L 390.702 630.689"
       id="path8" />
    <path
       style="fill:none;stroke:#000000"
       d="M 390.702 630.689 L 389.105 626.746"
       id="path9" />
    <path
       style="fill:none;stroke:#000000"
       d="M 389.105 626.746 L 388.164 622.6"
       id="path10" />
    <path
       style="fill:none;stroke:#000000"
       d="M 388.164 622.6 L 387.677 616.604"
       id="path11" />
    <path
       style="fill:none;stroke:#000000"
       d="M 387.677 616.604 L 388.115 610.591"
       id="path12" />
    <path
       style="fill:none;stroke:#000000"
       d="M 388.115 610.591 L 388.929 607.102"
       id="path13" />
    <path
       style="fill:none;stroke:#000000"
       d="M 388.929 607.102 L 390.314 603.798"
       id="path14" />
    <path
       style="fill:none;stroke:#000000"
       d="M 390.314 603.798 L 393.296 599.384"
       id="path15" />
    <path
       style="fill:none;stroke:#000000"
       d="M 393.296 599.384 L 397.033 595.528"
       id="path16" />
    <path
       style="fill:none;stroke:#000000"
       d="M 397.033 595.528 L 400.603 592.626"
       id="path17" />
    <path
       style="fill:none;stroke:#000000"
       d="M 400.603 592.626 L 404.532 590.275"
       id="path18" />
    <path
       style="fill:none;stroke:#000000"
       d="M 404.532 590.275 L 410.024 588.105"
       id="path19" />
    <path
       style="fill:none;stroke:#000000"
       d="M 410.024 588.105 L 415.834 586.802"
       id="path20" />
    <path
       style="fill:none;stroke:#000000"
       d="M 415.834 586.802 L 421.922 586.276"
       id="path21" />
    <path
       style="fill:none;stroke:#000000"
       d="M 421.922 586.276 L 428.125 586.642"
       id="path22" />
    <path
       style="fill:none;stroke:#000000"
       d="M 428.125 586.642 L 435.481 588.618"
       id="path23" />
    <path
       style="fill:none;stroke:#000000"
       d="M 435.481 588.618 L 439.945 590.814"
       id="path24" />
    <path
       style="fill:none;stroke:#000000"
       d="M 439.945 590.814 L 444.022 593.664"
       id="path25" />
    <path
       style="fill:none;stroke:#000000"
       d="M 444.022 593.664 L 446.496 596.739"
       id="path26" />
    <path
       style="fill:none;stroke:#000000"
       d="M 446.496 596.739 L 447.687 598.277"
       id="path27" />
    <path
       style="fill:none;stroke:#000000"
       d="M 447.687 598.277 L 449.206 599.453"
       id="path28" />
    <path
       style="fill:none;stroke:#000000"
       d="M 449.206 599.453 L 452.668 599.928"
       id="path29" />
    <path
       style="fill:none;stroke:#000000"
       d="M 452.668 599.928 L 456.192 599.208"
       id="path30" />
    <path
       style="fill:none;stroke:#000000"
       d="M 456.192 599.208 L 458.881 597.236"
       id="path31" />
    <path
       style="fill:none;stroke:#000000"
       d="M 458.881 597.236 L 461.523 594.454"
       id="path32" />
    <path
       style="fill:none;stroke:#000000"
       d="M 461.523 594.454 L 467.918 588.385"
       id="path33" />
    <path
       style="fill:none;stroke:#000000"
       d="M 467.918 588.385 L 470.04 585.721"
       id="path34" />
    <path
       style="fill:none;stroke:#000000"
       d="M 470.04 585.721 L 471.666 582.504"
       id="path35" />
    <path
       style="fill:none;stroke:#000000"
       d="M 471.666 582.504 L 472.041 579.25"
       id="path36" />
    <path
       style="fill:none;stroke:#000000"
       d="M 472.041 579.25 L 471.922 577.269"
       id="path37" />
    <path
       style="fill:none;stroke:#000000"
       d="M 471.922 577.269 L 465.984 572.831"
       id="path38" />
    <path
       style="fill:none;stroke:#000000"
       d="M 465.984 572.831 L 463.308 569.284"
       id="path39" />
    <path
       style="fill:none;stroke:#000000"
       d="M 463.308 569.284 L 461.164 565.329"
       id="path40" />
    <path
       style="fill:none;stroke:#000000"
       d="M 461.164 565.329 L 459.574 561.894"
       id="path41" />
    <path
       style="fill:none;stroke:#000000"
       d="M 459.574 561.894 L 458.674 558.21"
       id="path42" />
    <path
       style="fill:none;stroke:#000000"
       d="M 458.674 558.21 L 458.365 551.732"
       id="path43" />
    <path
       style="fill:none;stroke:#000000"
       d="M 458.365 551.732 L 459.599 545.218"
       id="path44" />
    <path
       style="fill:none;stroke:#000000"
       d="M 459.599 545.218 L 461.139 541.783"
       id="path45" />
    <path
       style="fill:none;stroke:#000000"
       d="M 461.139 541.783 L 463.183 538.65"
       id="path46" />
    <path
       style="fill:none;stroke:#000000"
       d="M 463.183 538.65 L 468.282 533.087"
       id="path47" />
    <path
       style="fill:none;stroke:#000000"
       d="M 468.282 533.087 L 474.086 528.328"
       id="path48" />
    <path
       style="fill:none;stroke:#000000"
       d="M 474.086 528.328 L 478.019 527.468"
       id="path49" />
    <path
       style="fill:none;stroke:#000000"
       d="M 478.019 527.468 L 482.617 526.79"
       id="path50" />
    <path
       style="fill:none;stroke:#000000"
       d="M 482.617 526.79 L 487.724 526.606"
       id="path51" />
    <path
       style="fill:none;stroke:#000000"
       d="M 487.724 526.606 L 490.67 527.039"
       id="path52" />
    <path
       style="fill:none;stroke:#000000"
       d="M 490.67 527.039 L 493.47 526.862"
       id="path53" />
    <path
       style="fill:none;stroke:#000000"
       d="M 493.47 526.862 L 495.182 525.548"
       id="path54" />
    <path
       style="fill:none;stroke:#000000"
       d="M 495.182 525.548 L 496.343 523.478"
       id="path55" />
    <path
       style="fill:none;stroke:#000000"
       d="M 496.343 523.478 L 497.284 517.988"
       id="path56" />
    <path
       style="fill:none;stroke:#000000"
       d="M 497.284 517.988 L 497.423 512.279"
       id="path57" />
    <path
       style="fill:none;stroke:#000000"
       d="M 497.423 512.279 L 497.339 505.915"
       id="path58" />
    <path
       style="fill:none;stroke:#000000"
       d="M 497.339 505.915 L 497.304 503.247"
       id="path59" />
    <path
       style="fill:none;stroke:#000000"
       d="M 497.304 503.247 L 496.854 500.748"
       id="path60" />
    <path
       style="fill:none;stroke:#000000"
       d="M 496.854 500.748 L 495.675 498.844"
       id="path61" />
    <path
       style="fill:none;stroke:#000000"
       d="M 495.675 498.844 L 493.917 497.428"
       id="path62" />
    <path
       style="fill:none;stroke:#000000"
       d="M 493.917 497.428 L 491.445 496.667"
       id="path63" />
    <path
       style="fill:none;stroke:#000000"
       d="M 491.445 496.667 L 488.809 496.407"
       id="path64" />
    <path
       style="fill:none;stroke:#000000"
       d="M 488.809 496.407 L 482.628 496.471"
       id="path65" />
    <path
       style="fill:none;stroke:#000000"
       d="M 482.628 496.471 L 479.55 496.502"
       id="path66" />
    <path
       style="fill:none;stroke:#000000"
       d="M 479.55 496.502 L 476.551 496.024"
       id="path67" />
    <path
       style="fill:none;stroke:#000000"
       d="M 476.551 496.024 L 472.389 494.054"
       id="path68" />
    <path
       style="fill:none;stroke:#000000"
       d="M 472.389 494.054 L 468.634 491.299"
       id="path69" />
    <path
       style="fill:none;stroke:#000000"
       d="M 468.634 491.299 L 464.957 488.054"
       id="path70" />
    <path
       style="fill:none;stroke:#000000"
       d="M 464.957 488.054 L 461.866 484.276"
       id="path71" />
    <path
       style="fill:none;stroke:#000000"
       d="M 461.866 484.276 L 460.188 480.885"
       id="path72" />
    <path
       style="fill:none;stroke:#000000"
       d="M 460.188 480.885 L 459.057 477.253"
       id="path73" />
    <path
       style="fill:none;stroke:#000000"
       d="M 459.057 477.253 L 457.91 471.993"
       id="path74" />
    <path
       style="fill:none;stroke:#000000"
       d="M 457.91 471.993 L 457.652 466.654"
       id="path75" />
    <path
       style="fill:none;stroke:#000000"
       d="M 457.652 466.654 L 458.278 463.583"
       id="path76" />
    <path
       style="fill:none;stroke:#000000"
       d="M 458.278 463.583 L 459.44 460.653"
       id="path77" />
    <path
       style="fill:none;stroke:#000000"
       d="M 459.44 460.653 L 462.339 455.44"
       id="path78" />
    <path
       style="fill:none;stroke:#000000"
       d="M 462.339 455.44 L 465.952 450.693"
       id="path79" />
    <path
       style="fill:none;stroke:#000000"
       d="M 465.952 450.693 L 468.778 448.594"
       id="path80" />
    <path
       style="fill:none;stroke:#000000"
       d="M 468.778 448.594 L 470.177 447.559"
       id="path81" />
    <path
       style="fill:none;stroke:#000000"
       d="M 470.177 447.559 L 471.187 446.224"
       id="path82" />
    <path
       style="fill:none;stroke:#000000"
       d="M 471.187 446.224 L 471.379 444.338"
       id="path83" />
    <path
       style="fill:none;stroke:#000000"
       d="M 471.379 444.338 L 471.187 442.01"
       id="path84" />
    <path
       style="fill:none;stroke:#000000"
       d="M 471.187 442.01 L 469.802 439.586"
       id="path85" />
    <path
       style="fill:none;stroke:#000000"
       d="M 469.802 439.586 L 467.883 437.338"
       id="path86" />
    <path
       style="fill:none;stroke:#000000"
       d="M 467.883 437.338 L 463.663 433.156"
       id="path87" />
    <path
       style="fill:none;stroke:#000000"
       d="M 463.663 433.156 L 459.717 428.841"
       id="path88" />
    <path
       style="fill:none;stroke:#000000"
       d="M 459.717 428.841 L 455.226 425.41"
       id="path89" />
    <path
       style="fill:none;stroke:#000000"
       d="M 455.226 425.41 L 452.594 424.536"
       id="path90" />
    <path
       style="fill:none;stroke:#000000"
       d="M 452.594 424.536 L 449.863 424.643"
       id="path91" />
    <path
       style="fill:none;stroke:#000000"
       d="M 449.863 424.643 L 447.587 426.074"
       id="path92" />
    <path
       style="fill:none;stroke:#000000"
       d="M 447.587 426.074 L 445.649 428.091"
       id="path93" />
    <path
       style="fill:none;stroke:#000000"
       d="M 445.649 428.091 L 443.122 431.262"
       id="path94" />
    <path
       style="fill:none;stroke:#000000"
       d="M 443.122 431.262 L 440.413 434.22"
       id="path95" />
    <path
       style="fill:none;stroke:#000000"
       d="M 440.413 434.22 L 437.29 435.887"
       id="path96" />
    <path
       style="fill:none;stroke:#000000"
       d="M 437.29 435.887 L 433.901 437.03"
       id="path97" />
    <path
       style="fill:none;stroke:#000000"
       d="M 433.901 437.03 L 430.43 437.991"
       id="path98" />
    <path
       style="fill:none;stroke:#000000"
       d="M 430.43 437.991 L 426.878 438.434"
       id="path99" />
    <path
       style="fill:none;stroke:#000000"
       d="M 426.878 438.434 L 422.042 438.039"
       id="path100" />
    <path
       style="fill:none;stroke:#000000"
       d="M 422.042 438.039 L 417.301 437.03"
       id="path101" />
    <path
       style="fill:none;stroke:#000000"
       d="M 417.301 437.03 L 412.929 435.027"
       id="path102" />
    <path
       style="fill:none;stroke:#000000"
       d="M 412.929 435.027 L 409.001 432.177"
       id="path103" />
    <path
       style="fill:none;stroke:#000000"
       d="M 409.001 432.177 L 405.244 429.524"
       id="path104" />
    <path
       style="fill:none;stroke:#000000"
       d="M 405.244 429.524 L 402.584 425.186"
       id="path105" />
    <path
       style="fill:none;stroke:#000000"
       d="M 402.584 425.186 L 402.272 428.747"
       id="path106" />
    <path
       style="fill:none;stroke:#000000"
       d="M 402.272 428.747 L 402.361 432.784"
       id="path107" />
    <path
       style="fill:none;stroke:#000000"
       d="M 402.361 432.784 L 402.265 439.392"
       id="path108" />
    <path
       style="fill:none;stroke:#000000"
       d="M 402.265 439.392 L 401.694 442.881"
       id="path109" />
    <path
       style="fill:none;stroke:#000000"
       d="M 401.694 442.881 L 400.829 446.319"
       id="path110" />
    <path
       style="fill:none;stroke:#000000"
       d="M 400.829 446.319 L 399.114 451.877"
       id="path111" />
    <path
       style="fill:none;stroke:#000000"
       d="M 399.114 451.877 L 397.157 455.928"
       id="path112" />
    <path
       style="fill:none;stroke:#000000"
       d="M 397.157 455.928 L 398.453 457.704"
       id="path113" />
    <path
       style="fill:none;stroke:#000000"
       d="M 398.453 457.704 L 400.477 458.897"
       id="path114" />
    <path
       style="fill:none;stroke:#000000"
       d="M 400.477 458.897 L 404.447 460.172"
       id="path115" />
    <path
       style="fill:none;stroke:#000000"
       d="M 404.447 460.172 L 408.49 461.291"
       id="path116" />
    <path
       style="fill:none;stroke:#000000"
       d="M 408.49 461.291 L 414.971 464.994"
       id="path117" />
    <path
       style="fill:none;stroke:#000000"
       d="M 414.971 464.994 L 418.238 467.283"
       id="path118" />
    <path
       style="fill:none;stroke:#000000"
       d="M 418.238 467.283 L 421.291 469.879"
       id="path119" />
    <path
       style="fill:none;stroke:#000000"
       d="M 421.291 469.879 L 425.56 474.029"
       id="path120" />
    <path
       style="fill:none;stroke:#000000"
       d="M 425.56 474.029 L 429.272 478.689"
       id="path121" />
    <path
       style="fill:none;stroke:#000000"
       d="M 429.272 478.689 L 432.448 483.204"
       id="path122" />
    <path
       style="fill:none;stroke:#000000"
       d="M 432.448 483.204 L 435.178 487.979"
       id="path123" />
    <path
       style="fill:none;stroke:#000000"
       d="M 435.178 487.979 L 438.753 496.918"
       id="path124" />
    <path
       style="fill:none;stroke:#000000"
       d="M 438.753 496.918 L 440.892 507.101"
       id="path125" />
    <path
       style="fill:none;stroke:#000000"
       d="M 440.892 507.101 L 441.043 515.056"
       id="path126" />
    <path
       style="fill:none;stroke:#000000"
       d="M 441.043 515.056 L 440.094 522.967"
       id="path127" />
    <path
       style="fill:none;stroke:#000000"
       d="M 440.094 522.967 L 438.096 530.79"
       id="path128" />
    <path
       style="fill:none;stroke:#000000"
       d="M 438.096 530.79 L 434.955 538.226"
       id="path129" />
    <path
       style="fill:none;stroke:#000000"
       d="M 434.955 538.226 L 431.276 544.369"
       id="path130" />
    <path
       style="fill:none;stroke:#000000"
       d="M 431.276 544.369 L 426.75 549.91"
       id="path131" />
    <path
       style="fill:none;stroke:#000000"
       d="M 426.75 549.91 L 422.432 553.909"
       id="path132" />
    <path
       style="fill:none;stroke:#000000"
       d="M 422.432 553.909 L 417.812 557.572"
       id="path133" />
    <path
       style="fill:none;stroke:#000000"
       d="M 417.812 557.572 L 409.314 563.684"
       id="path134" />
    <path
       style="fill:none;stroke:#000000"
       d="M 409.314 563.684 L 400.829 570.022"
       id="path135" />
    <path
       style="fill:none;stroke:#000000"
       d="M 400.829 570.022 L 394.486 575.482"
       id="path136" />
    <path
       style="fill:none;stroke:#000000"
       d="M 394.486 575.482 L 388.57 581.387"
       id="path137" />
    <path
       style="fill:none;stroke:#000000"
       d="M 388.57 581.387 L 382.677 588.182"
       id="path138" />
    <path
       style="fill:none;stroke:#000000"
       d="M 382.677 588.182 L 377.844 595.688"
       id="path139" />
    <path
       style="fill:none;stroke:#000000"
       d="M 377.844 595.688 L 375.92 601.3"
       id="path140" />
    <path
       style="fill:none;stroke:#000000"
       d="M 375.92 601.3 L 374.907 607.181"
       id="path141" />
    <path
       style="fill:none;stroke:#000000"
       d="M 374.907 607.181 L 374.907 613.055"
       id="path142" />
    <path
       style="fill:none;stroke:#000000"
       d="M 374.907 613.055 L 375.888 620.324"
       id="path143" />
    <path
       style="fill:none;stroke:#000000"
       d="M 375.888 620.324 L 378.099 627.228"
       id="path144" />
    <path
       style="fill:none;stroke:#000000"
       d="M 378.099 627.228 L 382.285 633.133"
       id="path145" />
    <path
       style="fill:none;stroke:#000000"
       d="M 382.285 633.133 L 387.548 638.21"
       id="path146" />
    <path
       style="fill:none;stroke:#000000"
       d="M 387.548 638.21 L 392.869 642.018"
       id="path147" />
    <path
       style="fill:none;stroke:#000000"
       d="M 392.869 642.018 L 396.232 644.084"
       id="path148" />
    <path
       style="fill:none;stroke:#000000"
       d="M 396.232 644.084 L 406.192 646.382"
       id="path149" />
    <path
       style="fill:none;stroke:#000000"
       d="M 406.192 646.382 L 406.317 645.773"
       id="path150" />
    <path
       style="fill:none;stroke:#000000"
       d="M 485.756 521.051 L 484.078 517.66"
       id="path151" />
    <path
       style="fill:none;stroke:#000000"
       d="M 484.078 517.66 L 482.947 514.028"
       id="path152" />
    <path
       style="fill:none;stroke:#000000"
       d="M 482.947 514.028 L 481.314 512.967"
       id="path153" />
    <path
       style="fill:none;stroke:#000000"
       d="M 481.314 512.967 L 477.592 512.344"
       id="path154" />
    <path
       style="fill:none;stroke:#000000"
       d="M 477.592 512.344 L 466.862 512.244"
       id="path155" />
    <path
       style="fill:none;stroke:#000000"
       d="M 466.862 512.244 L 456.729 513.394"
       id="path156" />
    <path
       style="fill:none;stroke:#000000"
       d="M 456.729 513.394 L 453.751 514.335"
       id="path157" />
    <path
       style="fill:none;stroke:#000000"
       d="M 453.751 514.335 L 453.112 514.879"
       id="path158" />
    <path
       style="fill:none;stroke:#000000"
       d="M 453.112 514.879 L 453.162 515.464"
       id="path159" />
    <path
       style="fill:none;stroke:#000000"
       d="M 453.162 515.464 L 456.339 519.979"
       id="path160" />
    <path
       style="fill:none;stroke:#000000"
       d="M 456.339 519.979 L 459.068 524.754"
       id="path161" />
    <path
       style="fill:none;stroke:#000000"
       d="M 362.669 378.409 L 366.489 380.748"
       id="path162" />
    <path
       style="fill:none;stroke:#000000"
       d="M 366.489 380.748 L 372.442 385.186"
       id="path163" />
    <path
       style="fill:none;stroke:#000000"
       d="M 372.442 385.186 L 375.677 389.105"
       id="path164" />
    <path
       style="fill:none;stroke:#000000"
       d="M 375.677 389.105 L 378.284 393.493"
       id="path165" />
    <path
       style="fill:none;stroke:#000000"
       d="M 378.284 393.493 L 379.881 397.435"
       id="path166" />
    <path
       style="fill:none;stroke:#000000"
       d="M 379.881 397.435 L 380.823 401.582"
       id="path167" />
    <path
       style="fill:none;stroke:#000000"
       d="M 380.823 401.582 L 381.309 407.578"
       id="path168" />
    <path
       style="fill:none;stroke:#000000"
       d="M 381.309 407.578 L 380.871 413.591"
       id="path169" />
    <path
       style="fill:none;stroke:#000000"
       d="M 380.871 413.591 L 380.057 417.079"
       id="path170" />
    <path
       style="fill:none;stroke:#000000"
       d="M 380.057 417.079 L 378.672 420.384"
       id="path171" />
    <path
       style="fill:none;stroke:#000000"
       d="M 378.672 420.384 L 375.69 424.798"
       id="path172" />
    <path
       style="fill:none;stroke:#000000"
       d="M 375.69 424.798 L 371.953 428.653"
       id="path173" />
    <path
       style="fill:none;stroke:#000000"
       d="M 371.953 428.653 L 368.383 431.556"
       id="path174" />
    <path
       style="fill:none;stroke:#000000"
       d="M 368.383 431.556 L 364.454 433.907"
       id="path175" />
    <path
       style="fill:none;stroke:#000000"
       d="M 364.454 433.907 L 358.963 436.077"
       id="path176" />
    <path
       style="fill:none;stroke:#000000"
       d="M 358.963 436.077 L 353.152 437.38"
       id="path177" />
    <path
       style="fill:none;stroke:#000000"
       d="M 353.152 437.38 L 347.064 437.905"
       id="path178" />
    <path
       style="fill:none;stroke:#000000"
       d="M 347.064 437.905 L 340.861 437.539"
       id="path179" />
    <path
       style="fill:none;stroke:#000000"
       d="M 340.861 437.539 L 333.505 435.564"
       id="path180" />
    <path
       style="fill:none;stroke:#000000"
       d="M 333.505 435.564 L 329.041 433.368"
       id="path181" />
    <path
       style="fill:none;stroke:#000000"
       d="M 329.041 433.368 L 324.964 430.518"
       id="path182" />
    <path
       style="fill:none;stroke:#000000"
       d="M 324.964 430.518 L 322.491 427.443"
       id="path183" />
    <path
       style="fill:none;stroke:#000000"
       d="M 322.491 427.443 L 321.299 425.904"
       id="path184" />
    <path
       style="fill:none;stroke:#000000"
       d="M 321.299 425.904 L 319.78 424.729"
       id="path185" />
    <path
       style="fill:none;stroke:#000000"
       d="M 319.78 424.729 L 316.318 424.253"
       id="path186" />
    <path
       style="fill:none;stroke:#000000"
       d="M 316.318 424.253 L 312.794 424.974"
       id="path187" />
    <path
       style="fill:none;stroke:#000000"
       d="M 312.794 424.974 L 310.105 426.946"
       id="path188" />
    <path
       style="fill:none;stroke:#000000"
       d="M 310.105 426.946 L 307.463 429.728"
       id="path189" />
    <path
       style="fill:none;stroke:#000000"
       d="M 307.463 429.728 L 301.068 435.796"
       id="path190" />
    <path
       style="fill:none;stroke:#000000"
       d="M 301.068 435.796 L 298.946 438.461"
       id="path191" />
    <path
       style="fill:none;stroke:#000000"
       d="M 298.946 438.461 L 297.32 441.678"
       id="path192" />
    <path
       style="fill:none;stroke:#000000"
       d="M 297.32 441.678 L 296.945 444.932"
       id="path193" />
    <path
       style="fill:none;stroke:#000000"
       d="M 296.945 444.932 L 297.064 446.913"
       id="path194" />
    <path
       style="fill:none;stroke:#000000"
       d="M 297.064 446.913 L 303.002 451.351"
       id="path195" />
    <path
       style="fill:none;stroke:#000000"
       d="M 303.002 451.351 L 305.678 454.898"
       id="path196" />
    <path
       style="fill:none;stroke:#000000"
       d="M 305.678 454.898 L 307.823 458.852"
       id="path197" />
    <path
       style="fill:none;stroke:#000000"
       d="M 307.823 458.852 L 309.412 462.287"
       id="path198" />
    <path
       style="fill:none;stroke:#000000"
       d="M 309.412 462.287 L 310.313 465.971"
       id="path199" />
    <path
       style="fill:none;stroke:#000000"
       d="M 310.313 465.971 L 310.621 472.45"
       id="path200" />
    <path
       style="fill:none;stroke:#000000"
       d="M 310.621 472.45 L 309.387 478.964"
       id="path201" />
    <path
       style="fill:none;stroke:#000000"
       d="M 309.387 478.964 L 307.847 482.399"
       id="path202" />
    <path
       style="fill:none;stroke:#000000"
       d="M 307.847 482.399 L 305.803 485.531"
       id="path203" />
    <path
       style="fill:none;stroke:#000000"
       d="M 305.803 485.531 L 300.704 491.095"
       id="path204" />
    <path
       style="fill:none;stroke:#000000"
       d="M 300.704 491.095 L 294.9 495.853"
       id="path205" />
    <path
       style="fill:none;stroke:#000000"
       d="M 294.9 495.853 L 290.967 496.713"
       id="path206" />
    <path
       style="fill:none;stroke:#000000"
       d="M 290.967 496.713 L 286.369 497.392"
       id="path207" />
    <path
       style="fill:none;stroke:#000000"
       d="M 286.369 497.392 L 281.262 497.575"
       id="path208" />
    <path
       style="fill:none;stroke:#000000"
       d="M 281.262 497.575 L 278.316 497.143"
       id="path209" />
    <path
       style="fill:none;stroke:#000000"
       d="M 278.316 497.143 L 275.516 497.32"
       id="path210" />
    <path
       style="fill:none;stroke:#000000"
       d="M 275.516 497.32 L 273.804 498.634"
       id="path211" />
    <path
       style="fill:none;stroke:#000000"
       d="M 273.804 498.634 L 272.643 500.704"
       id="path212" />
    <path
       style="fill:none;stroke:#000000"
       d="M 272.643 500.704 L 271.702 506.193"
       id="path213" />
    <path
       style="fill:none;stroke:#000000"
       d="M 271.702 506.193 L 271.563 511.903"
       id="path214" />
    <path
       style="fill:none;stroke:#000000"
       d="M 271.563 511.903 L 271.647 518.267"
       id="path215" />
    <path
       style="fill:none;stroke:#000000"
       d="M 271.647 518.267 L 271.682 520.934"
       id="path216" />
    <path
       style="fill:none;stroke:#000000"
       d="M 271.682 520.934 L 272.132 523.433"
       id="path217" />
    <path
       style="fill:none;stroke:#000000"
       d="M 272.132 523.433 L 273.311 525.337"
       id="path218" />
    <path
       style="fill:none;stroke:#000000"
       d="M 273.311 525.337 L 275.069 526.753"
       id="path219" />
    <path
       style="fill:none;stroke:#000000"
       d="M 275.069 526.753 L 277.541 527.514"
       id="path220" />
    <path
       style="fill:none;stroke:#000000"
       d="M 277.541 527.514 L 280.177 527.775"
       id="path221" />
    <path
       style="fill:none;stroke:#000000"
       d="M 280.177 527.775 L 286.358 527.711"
       id="path222" />
    <path
       style="fill:none;stroke:#000000"
       d="M 286.358 527.711 L 289.436 527.679"
       id="path223" />
    <path
       style="fill:none;stroke:#000000"
       d="M 289.436 527.679 L 292.436 528.158"
       id="path224" />
    <path
       style="fill:none;stroke:#000000"
       d="M 292.436 528.158 L 296.598 530.127"
       id="path225" />
    <path
       style="fill:none;stroke:#000000"
       d="M 296.598 530.127 L 300.353 532.883"
       id="path226" />
    <path
       style="fill:none;stroke:#000000"
       d="M 300.353 532.883 L 304.03 536.128"
       id="path227" />
    <path
       style="fill:none;stroke:#000000"
       d="M 304.03 536.128 L 307.12 539.906"
       id="path228" />
    <path
       style="fill:none;stroke:#000000"
       d="M 307.12 539.906 L 308.799 543.297"
       id="path229" />
    <path
       style="fill:none;stroke:#000000"
       d="M 308.799 543.297 L 309.93 546.929"
       id="path230" />
    <path
       style="fill:none;stroke:#000000"
       d="M 309.93 546.929 L 311.076 552.189"
       id="path231" />
    <path
       style="fill:none;stroke:#000000"
       d="M 311.076 552.189 L 311.334 557.527"
       id="path232" />
    <path
       style="fill:none;stroke:#000000"
       d="M 311.334 557.527 L 310.708 560.598"
       id="path233" />
    <path
       style="fill:none;stroke:#000000"
       d="M 310.708 560.598 L 309.546 563.529"
       id="path234" />
    <path
       style="fill:none;stroke:#000000"
       d="M 309.546 563.529 L 306.647 568.742"
       id="path235" />
    <path
       style="fill:none;stroke:#000000"
       d="M 306.647 568.742 L 303.034 573.489"
       id="path236" />
    <path
       style="fill:none;stroke:#000000"
       d="M 303.034 573.489 L 300.208 575.588"
       id="path237" />
    <path
       style="fill:none;stroke:#000000"
       d="M 300.208 575.588 L 298.809 576.623"
       id="path238" />
    <path
       style="fill:none;stroke:#000000"
       d="M 298.809 576.623 L 297.799 577.958"
       id="path239" />
    <path
       style="fill:none;stroke:#000000"
       d="M 297.799 577.958 L 297.607 579.844"
       id="path240" />
    <path
       style="fill:none;stroke:#000000"
       d="M 297.607 579.844 L 297.799 582.172"
       id="path241" />
    <path
       style="fill:none;stroke:#000000"
       d="M 297.799 582.172 L 299.184 584.595"
       id="path242" />
    <path
       style="fill:none;stroke:#000000"
       d="M 299.184 584.595 L 301.103 586.844"
       id="path243" />
    <path
       style="fill:none;stroke:#000000"
       d="M 301.103 586.844 L 305.323 591.025"
       id="path244" />
    <path
       style="fill:none;stroke:#000000"
       d="M 305.323 591.025 L 309.269 595.341"
       id="path245" />
    <path
       style="fill:none;stroke:#000000"
       d="M 309.269 595.341 L 313.76 598.772"
       id="path246" />
    <path
       style="fill:none;stroke:#000000"
       d="M 313.76 598.772 L 316.392 599.646"
       id="path247" />
    <path
       style="fill:none;stroke:#000000"
       d="M 316.392 599.646 L 319.123 599.538"
       id="path248" />
    <path
       style="fill:none;stroke:#000000"
       d="M 319.123 599.538 L 321.4 598.108"
       id="path249" />
    <path
       style="fill:none;stroke:#000000"
       d="M 321.4 598.108 L 323.337 596.091"
       id="path250" />
    <path
       style="fill:none;stroke:#000000"
       d="M 323.337 596.091 L 325.864 592.919"
       id="path251" />
    <path
       style="fill:none;stroke:#000000"
       d="M 325.864 592.919 L 328.573 589.961"
       id="path252" />
    <path
       style="fill:none;stroke:#000000"
       d="M 328.573 589.961 L 331.696 588.294"
       id="path253" />
    <path
       style="fill:none;stroke:#000000"
       d="M 331.696 588.294 L 335.085 587.152"
       id="path254" />
    <path
       style="fill:none;stroke:#000000"
       d="M 335.085 587.152 L 338.556 586.19"
       id="path255" />
    <path
       style="fill:none;stroke:#000000"
       d="M 338.556 586.19 L 342.108 585.748"
       id="path256" />
    <path
       style="fill:none;stroke:#000000"
       d="M 342.108 585.748 L 346.944 586.143"
       id="path257" />
    <path
       style="fill:none;stroke:#000000"
       d="M 346.944 586.143 L 351.685 587.152"
       id="path258" />
    <path
       style="fill:none;stroke:#000000"
       d="M 351.685 587.152 L 356.057 589.155"
       id="path259" />
    <path
       style="fill:none;stroke:#000000"
       d="M 356.057 589.155 L 359.985 592.004"
       id="path260" />
    <path
       style="fill:none;stroke:#000000"
       d="M 359.985 592.004 L 363.742 594.658"
       id="path261" />
    <path
       style="fill:none;stroke:#000000"
       d="M 363.742 594.658 L 366.402 598.996"
       id="path262" />
    <path
       style="fill:none;stroke:#000000"
       d="M 366.402 598.996 L 366.714 595.435"
       id="path263" />
    <path
       style="fill:none;stroke:#000000"
       d="M 366.714 595.435 L 366.625 591.398"
       id="path264" />
    <path
       style="fill:none;stroke:#000000"
       d="M 366.625 591.398 L 366.721 584.79"
       id="path265" />
    <path
       style="fill:none;stroke:#000000"
       d="M 366.721 584.79 L 367.292 581.301"
       id="path266" />
    <path
       style="fill:none;stroke:#000000"
       d="M 367.292 581.301 L 368.158 577.862"
       id="path267" />
    <path
       style="fill:none;stroke:#000000"
       d="M 368.158 577.862 L 369.872 572.305"
       id="path268" />
    <path
       style="fill:none;stroke:#000000"
       d="M 369.872 572.305 L 371.829 568.254"
       id="path269" />
    <path
       style="fill:none;stroke:#000000"
       d="M 371.829 568.254 L 370.534 566.477"
       id="path270" />
    <path
       style="fill:none;stroke:#000000"
       d="M 370.534 566.477 L 368.509 565.285"
       id="path271" />
    <path
       style="fill:none;stroke:#000000"
       d="M 368.509 565.285 L 364.539 564.009"
       id="path272" />
    <path
       style="fill:none;stroke:#000000"
       d="M 364.539 564.009 L 360.496 562.89"
       id="path273" />
    <path
       style="fill:none;stroke:#000000"
       d="M 360.496 562.89 L 354.016 559.187"
       id="path274" />
    <path
       style="fill:none;stroke:#000000"
       d="M 354.016 559.187 L 350.748 556.898"
       id="path275" />
    <path
       style="fill:none;stroke:#000000"
       d="M 350.748 556.898 L 347.695 554.303"
       id="path276" />
    <path
       style="fill:none;stroke:#000000"
       d="M 347.695 554.303 L 343.426 550.153"
       id="path277" />
    <path
       style="fill:none;stroke:#000000"
       d="M 343.426 550.153 L 339.714 545.492"
       id="path278" />
    <path
       style="fill:none;stroke:#000000"
       d="M 339.714 545.492 L 336.538 540.977"
       id="path279" />
    <path
       style="fill:none;stroke:#000000"
       d="M 336.538 540.977 L 333.808 536.203"
       id="path280" />
    <path
       style="fill:none;stroke:#000000"
       d="M 333.808 536.203 L 330.233 527.264"
       id="path281" />
    <path
       style="fill:none;stroke:#000000"
       d="M 330.233 527.264 L 328.094 517.081"
       id="path282" />
    <path
       style="fill:none;stroke:#000000"
       d="M 328.094 517.081 L 327.943 509.126"
       id="path283" />
    <path
       style="fill:none;stroke:#000000"
       d="M 327.943 509.126 L 328.892 501.215"
       id="path284" />
    <path
       style="fill:none;stroke:#000000"
       d="M 328.892 501.215 L 330.89 493.392"
       id="path285" />
    <path
       style="fill:none;stroke:#000000"
       d="M 330.89 493.392 L 334.032 485.955"
       id="path286" />
    <path
       style="fill:none;stroke:#000000"
       d="M 334.032 485.955 L 337.71 479.813"
       id="path287" />
    <path
       style="fill:none;stroke:#000000"
       d="M 337.71 479.813 L 342.236 474.271"
       id="path288" />
    <path
       style="fill:none;stroke:#000000"
       d="M 342.236 474.271 L 346.554 470.272"
       id="path289" />
    <path
       style="fill:none;stroke:#000000"
       d="M 346.554 470.272 L 351.174 466.61"
       id="path290" />
    <path
       style="fill:none;stroke:#000000"
       d="M 351.174 466.61 L 359.672 460.498"
       id="path291" />
    <path
       style="fill:none;stroke:#000000"
       d="M 359.672 460.498 L 368.158 454.16"
       id="path292" />
    <path
       style="fill:none;stroke:#000000"
       d="M 368.158 454.16 L 374.5 448.7"
       id="path293" />
    <path
       style="fill:none;stroke:#000000"
       d="M 374.5 448.7 L 380.416 442.795"
       id="path294" />
    <path
       style="fill:none;stroke:#000000"
       d="M 380.416 442.795 L 386.309 435.999"
       id="path295" />
    <path
       style="fill:none;stroke:#000000"
       d="M 386.309 435.999 L 391.142 428.493"
       id="path296" />
    <path
       style="fill:none;stroke:#000000"
       d="M 391.142 428.493 L 393.067 422.881"
       id="path297" />
    <path
       style="fill:none;stroke:#000000"
       d="M 393.067 422.881 L 394.079 417.001"
       id="path298" />
    <path
       style="fill:none;stroke:#000000"
       d="M 394.079 417.001 L 394.079 411.127"
       id="path299" />
    <path
       style="fill:none;stroke:#000000"
       d="M 394.079 411.127 L 393.098 403.858"
       id="path300" />
    <path
       style="fill:none;stroke:#000000"
       d="M 393.098 403.858 L 390.887 396.953"
       id="path301" />
    <path
       style="fill:none;stroke:#000000"
       d="M 390.887 396.953 L 386.701 391.049"
       id="path302" />
    <path
       style="fill:none;stroke:#000000"
       d="M 386.701 391.049 L 381.438 385.972"
       id="path303" />
    <path
       style="fill:none;stroke:#000000"
       d="M 381.438 385.972 L 376.117 382.163"
       id="path304" />
    <path
       style="fill:none;stroke:#000000"
       d="M 376.117 382.163 L 372.755 380.098"
       id="path305" />
    <path
       style="fill:none;stroke:#000000"
       d="M 372.755 380.098 L 362.795 377.799"
       id="path306" />
    <path
       style="fill:none;stroke:#000000"
       d="M 362.795 377.799 L 362.669 378.409"
       id="path307" />
    <path
       style="fill:none;stroke:#000000"
       d="M 283.23 503.131 L 284.908 506.522"
       id="path308" />
    <path
       style="fill:none;stroke:#000000"
       d="M 284.908 506.522 L 286.039 510.154"
       id="path309" />
    <path
       style="fill:none;stroke:#000000"
       d="M 286.039 510.154 L 287.672 511.214"
       id="path310" />
    <path
       style="fill:none;stroke:#000000"
       d="M 287.672 511.214 L 291.394 511.838"
       id="path311" />
    <path
       style="fill:none;stroke:#000000"
       d="M 291.394 511.838 L 302.124 511.938"
       id="path312" />
    <path
       style="fill:none;stroke:#000000"
       d="M 302.124 511.938 L 312.258 510.788"
       id="path313" />
    <path
       style="fill:none;stroke:#000000"
       d="M 312.258 510.788 L 315.235 509.847"
       id="path314" />
    <path
       style="fill:none;stroke:#000000"
       d="M 315.235 509.847 L 315.874 509.303"
       id="path315" />
    <path
       style="fill:none;stroke:#000000"
       d="M 315.874 509.303 L 315.824 508.718"
       id="path316" />
    <path
       style="fill:none;stroke:#000000"
       d="M 315.824 508.718 L 312.648 504.203"
       id="path317" />
    <path
       style="fill:none;stroke:#000000"
       d="M 312.648 504.203 L 309.918 499.428"
       id="path318" />
    <path
       style="fill:none;stroke:#000000"
       d="M 383.569 449.213 L 387.246 456.835"
       id="path319" />
    <path
       style="fill:none;stroke:#000000"
       d="M 387.246 456.835 L 391.27 465.146"
       id="path320" />
    <path
       style="fill:none;stroke:#000000"
       d="M 391.27 465.146 L 396.663 472.941"
       id="path321" />
    <path
       style="fill:none;stroke:#000000"
       d="M 396.663 472.941 L 402.601 480.371"
       id="path322" />
    <path
       style="fill:none;stroke:#000000"
       d="M 402.601 480.371 L 408.802 487.697"
       id="path323" />
    <path
       style="fill:none;stroke:#000000"
       d="M 408.802 487.697 L 414.551 495.331"
       id="path324" />
    <path
       style="fill:none;stroke:#000000"
       d="M 414.551 495.331 L 417.273 501.539"
       id="path325" />
    <path
       style="fill:none;stroke:#000000"
       d="M 417.273 501.539 L 419.154 508.078"
       id="path326" />
    <path
       style="fill:none;stroke:#000000"
       d="M 419.154 508.078 L 419.536 513.899"
       id="path327" />
    <path
       style="fill:none;stroke:#000000"
       d="M 419.536 513.899 L 419.154 519.762"
       id="path328" />
    <path
       style="fill:none;stroke:#000000"
       d="M 419.154 519.762 L 418.51 523.425"
       id="path329" />
    <path
       style="fill:none;stroke:#000000"
       d="M 418.51 523.425 L 417.426 526.611"
       id="path330" />
    <path
       style="fill:none;stroke:#000000"
       d="M 417.426 526.611 L 414.108 532.951"
       id="path331" />
    <path
       style="fill:none;stroke:#000000"
       d="M 414.108 532.951 L 410.894 537.423"
       id="path332" />
    <path
       style="fill:none;stroke:#000000"
       d="M 410.894 537.423 L 406.761 541.095"
       id="path333" />
    <path
       style="fill:none;stroke:#000000"
       d="M 406.761 541.095 L 402.68 544.042"
       id="path334" />
    <path
       style="fill:none;stroke:#000000"
       d="M 402.68 544.042 L 398.263 546.406"
       id="path335" />
    <path
       style="fill:none;stroke:#000000"
       d="M 398.263 546.406 L 391.095 548.292"
       id="path336" />
    <path
       style="fill:none;stroke:#000000"
       d="M 391.095 548.292 L 383.658 548.973"
       id="path337" />
    <path
       style="fill:none;stroke:#000000"
       d="M 383.658 548.973 L 377.293 548.551"
       id="path338" />
    <path
       style="fill:none;stroke:#000000"
       d="M 377.293 548.551 L 371.088 547.026"
       id="path339" />
    <path
       style="fill:none;stroke:#000000"
       d="M 371.088 547.026 L 365.439 544.508"
       id="path340" />
    <path
       style="fill:none;stroke:#000000"
       d="M 365.439 544.508 L 360.554 540.741"
       id="path341" />
    <path
       style="fill:none;stroke:#000000"
       d="M 360.554 540.741 L 355.126 535.023"
       id="path342" />
    <path
       style="fill:none;stroke:#000000"
       d="M 355.126 535.023 L 352.897 531.878"
       id="path343" />
    <path
       style="fill:none;stroke:#000000"
       d="M 352.897 531.878 L 351.083 528.348"
       id="path344" />
    <path
       style="fill:none;stroke:#000000"
       d="M 351.083 528.348 L 349.562 523.839"
       id="path345" />
    <path
       style="fill:none;stroke:#000000"
       d="M 349.562 523.839 L 348.608 519.051"
       id="path346" />
    <path
       style="fill:none;stroke:#000000"
       d="M 348.608 519.051 L 348.339 509.405"
       id="path347" />
    <path
       style="fill:none;stroke:#000000"
       d="M 348.339 509.405 L 349.771 502.295"
       id="path348" />
    <path
       style="fill:none;stroke:#000000"
       d="M 349.771 502.295 L 352.588 495.596"
       id="path349" />
    <path
       style="fill:none;stroke:#000000"
       d="M 352.588 495.596 L 355.273 491.536"
       id="path350" />
    <path
       style="fill:none;stroke:#000000"
       d="M 355.273 491.536 L 358.43 487.807"
       id="path351" />
    <path
       style="fill:none;stroke:#000000"
       d="M 358.43 487.807 L 364.892 481.345"
       id="path352" />
    <path
       style="fill:none;stroke:#000000"
       d="M 364.892 481.345 L 368.591 477.115"
       id="path353" />
    <path
       style="fill:none;stroke:#000000"
       d="M 368.591 477.115 L 371.796 472.493"
       id="path354" />
    <path
       style="fill:none;stroke:#000000"
       d="M 371.796 472.493 L 375.957 465.146"
       id="path355" />
    <path
       style="fill:none;stroke:#000000"
       d="M 375.957 465.146 L 379.722 456.685"
       id="path356" />
    <path
       style="fill:none;stroke:#000000"
       d="M 379.722 456.685 L 383.569 449.213"
       id="path357" />
    <path
       style="fill:none;stroke:#000000"
       d="M 383.569 449.213 L 383.569 449.213"
       id="path358" />
  </g>
</svg>
